<svg width="40" height="40" viewBox="0 0 40 40" fill="none" xmlns="http://www.w3.org/2000/svg">
<path d="M40 20C40 8.9543 31.0457 0 20 0C8.9543 0 0 8.9543 0 20C0 31.0457 8.9543 40 20 40C31.0457 40 40 31.0457 40 20Z" fill="#E8E6FE"/>
<path fill-rule="evenodd" clip-rule="evenodd" d="M13.6461 19.2772L20.1061 12.9445C20.9371 12.1297 22.2861 12.1297 23.1171 12.9445L23.9801 13.7903C24.8111 14.6051 24.8111 15.9266 23.9801 16.7414L17.4941 23.0991C17.1231 23.4626 16.6201 23.6666 16.0951 23.6666H13.4391C13.1921 23.6666 12.9941 23.4674 13.0001 23.2256L13.0671 20.5983C13.0801 20.1018 13.2881 19.6284 13.6461 19.2772ZM23.3591 14.3989L22.4961 13.5531C22.0081 13.0744 21.2151 13.0744 20.7271 13.5531L20.2251 14.0447L22.8571 16.6241L23.3591 16.1328C23.8471 15.6541 23.8471 14.8776 23.3591 14.3989ZM14.2671 19.8858L19.6051 14.6533L22.2371 17.2327L16.8731 22.4905L16.8021 22.5545C16.6041 22.7164 16.3551 22.8059 16.0951 22.8059L13.8891 22.8056L13.9451 20.6203C13.9521 20.3446 14.0681 20.081 14.2671 19.8858ZM25.0001 23.2364C25.0001 22.9987 24.8031 22.806 24.5611 22.806H19.9811L19.9211 22.8099C19.7071 22.8384 19.5421 23.0185 19.5421 23.2364C19.5421 23.474 19.7381 23.6667 19.9811 23.6667H24.5611L24.6211 23.6628C24.8351 23.6343 25.0001 23.4542 25.0001 23.2364Z" fill="#5411A0"/>
</svg>
