<svg width="20" height="20" viewBox="0 0 20 20" fill="none" xmlns="http://www.w3.org/2000/svg">
<path fill-rule="evenodd" clip-rule="evenodd" d="M8.8559 11.1441C7.6859 9.97412 6.8039 8.66411 6.2179 7.33511C6.0939 7.05411 6.1669 6.72512 6.3839 6.50812L7.2029 5.69012C7.8739 5.01912 7.8739 4.07012 7.2879 3.48412L6.1139 2.31012C5.3329 1.52912 4.0669 1.52912 3.2859 2.31012L2.6339 2.96212C1.8929 3.70312 1.5839 4.77212 1.7839 5.83212C2.2779 8.44512 3.7959 11.3061 6.2449 13.7551C8.6939 16.2041 11.5549 17.7221 14.1679 18.2161C15.2279 18.4161 16.2969 18.1071 17.0379 17.3661L17.6889 16.7151C18.4699 15.9341 18.4699 14.6681 17.6889 13.8871L16.5159 12.7141C15.9299 12.1281 14.9799 12.1281 14.3949 12.7141L13.4919 13.6181C13.2749 13.8351 12.9459 13.9081 12.6649 13.7841C11.3359 13.1971 10.0259 12.3141 8.8559 11.1441Z" fill="white" stroke="#390050" stroke-width="1.5" stroke-linecap="round" stroke-linejoin="round"/>
</svg>
