<svg width="128" height="128" viewBox="0 0 128 128" fill="none" xmlns="http://www.w3.org/2000/svg">
<rect x="2" y="2" width="124" height="124" rx="62" fill="#F6F6F6"/>
<rect x="2" y="2" width="124" height="124" rx="62" stroke="#EAEAEA" stroke-width="4"/>
<path d="M64.0001 61C55.7885 61 49.0681 54.2827 49.0681 46.068H43.0681C43.0681 57.5973 52.4757 67 64.0001 67V61ZM49.0681 46.068C49.0681 37.8238 55.8179 31 64.0001 31V25C52.4463 25 43.0681 34.5682 43.0681 46.068H49.0681ZM64.0001 31C72.2117 31 78.9321 37.7173 78.9321 45.932H84.9321C84.9321 34.4027 75.5245 25 64.0001 25V31ZM78.9321 45.932C78.9321 54.1762 72.1823 61 64.0001 61V67C75.5539 67 84.9321 57.4318 84.9321 45.932H78.9321ZM92 97H36V103H92V97ZM36 97C35.4569 97 35 96.5431 35 96H29C29 99.8569 32.1431 103 36 103V97ZM35 96V92H29V96H35ZM35 92C35 84.8569 40.8569 79 48 79V73C37.5431 73 29 81.5431 29 92H35ZM48 79H80V73H48V79ZM80 79C87.1431 79 93 84.8569 93 92H99C99 81.5431 90.4569 73 80 73V79ZM93 92V96H99V92H93ZM93 96C93 96.5431 92.5431 97 92 97V103C95.8569 103 99 99.8569 99 96H93Z" fill="#9C9C9C"/>
</svg>
