<svg width="37" height="38" viewBox="0 0 37 38" fill="none" xmlns="http://www.w3.org/2000/svg">
<path d="M18.4015 0.625H18.3023C8.5197 0.625 0.589355 8.77981 0.589355 18.8393C0.589355 28.8988 8.5197 37.0536 18.3023 37.0536H18.4015C28.1841 37.0536 36.1144 28.8988 36.1144 18.8393C36.1144 8.77981 28.1841 0.625 18.4015 0.625Z" fill="#114F44"/>
<path d="M11.2178 17.018C11.2178 12.9979 14.3919 9.73315 18.3021 9.73315C22.2113 9.73315 25.3863 12.9979 25.3863 17.018" stroke="#F0F4F8" stroke-width="1.5" stroke-miterlimit="10" stroke-linecap="round" stroke-linejoin="round"/>
<path d="M11.2178 17.018C11.2178 20.4851 12.9882 23.0889 18.3021 27.9454" stroke="#F0F4F8" stroke-width="1.5" stroke-miterlimit="10" stroke-linecap="round" stroke-linejoin="round"/>
<path d="M25.3865 17.018C25.3865 20.4851 23.6152 23.0889 18.3022 27.9454" stroke="#F0F4F8" stroke-width="1.5" stroke-miterlimit="10" stroke-linecap="round" stroke-linejoin="round"/>
<path d="M18.3022 19.4464V21.8747" stroke="#F0F4F8" stroke-width="1.5" stroke-miterlimit="10" stroke-linecap="round" stroke-linejoin="round"/>
<path d="M17.4165 19.4464H19.1878" stroke="#F0F4F8" stroke-width="1.5" stroke-miterlimit="10" stroke-linecap="round" stroke-linejoin="round"/>
<path d="M16.2358 18.2322C16.2358 18.9 16.7672 19.4464 17.4164 19.4464" stroke="#F0F4F8" stroke-width="1.5" stroke-miterlimit="10" stroke-linecap="round" stroke-linejoin="round"/>
<path d="M20.3683 18.2322C20.3683 18.9 19.8369 19.4464 19.1877 19.4464" stroke="#F0F4F8" stroke-width="1.5" stroke-miterlimit="10" stroke-linecap="round" stroke-linejoin="round"/>
<path d="M16.2358 15.8039H20.3683" stroke="#F0F4F8" stroke-width="1.5" stroke-miterlimit="10" stroke-linecap="round" stroke-linejoin="round"/>
<path d="M20.3684 18.2322V15.8039" stroke="#F0F4F8" stroke-width="1.5" stroke-miterlimit="10" stroke-linecap="round" stroke-linejoin="round"/>
<path d="M16.2358 18.2322V15.8039" stroke="#F0F4F8" stroke-width="1.5" stroke-miterlimit="10" stroke-linecap="round" stroke-linejoin="round"/>
<path d="M17.1216 13.3756V15.8039" stroke="#F0F4F8" stroke-width="1.5" stroke-miterlimit="10" stroke-linecap="round" stroke-linejoin="round"/>
<path d="M19.4827 13.3756V15.8039" stroke="#F0F4F8" stroke-width="1.5" stroke-miterlimit="10" stroke-linecap="round" stroke-linejoin="round"/>
</svg>
