<svg width="17" height="16" viewBox="0 0 17 16" fill="none" xmlns="http://www.w3.org/2000/svg">
<path d="M10.3233 5.58299L8.56748 1.78664L6.81164 5.58299C6.63414 5.96676 6.27013 6.23086 5.85023 6.28051L1.69109 6.7723L4.76378 9.60614C5.07543 9.89356 5.21499 10.3225 5.13215 10.7382L4.31604 14.8344L7.97443 12.7921C8.34303 12.5864 8.79193 12.5864 9.16052 12.7921L12.8189 14.8344L12.0028 10.7382C11.92 10.3225 12.0595 9.89356 12.3712 9.60614L15.4439 6.7723L11.2847 6.28051C10.8648 6.23086 10.5008 5.96676 10.3233 5.58299ZM1.23856 6.35494L1.2389 6.35526L1.23856 6.35494ZM13.3548 15.1335C13.3547 15.1335 13.3546 15.1334 13.3545 15.1334L13.3548 15.1335Z" fill="#FDBB10" stroke="#FDBB10" stroke-width="1.5"/>
</svg>
